<?xml version="1.0" encoding="utf-8"?>
<!-- Generator: Adobe Illustrator 27.4.0, SVG Export Plug-In . SVG Version: 6.00 Build 0)  -->
<svg version="1.1" id="Warstwa_1" xmlns="http://www.w3.org/2000/svg" xmlns:xlink="http://www.w3.org/1999/xlink" x="0px" y="0px"
	 viewBox="0 0 784.5 176.9" style="enable-background:new 0 0 784.5 176.9;" xml:space="preserve">
<style type="text/css">
	.st0{fill:none;stroke:#FFED00;stroke-width:2.2328;stroke-linecap:round;stroke-linejoin:round;stroke-miterlimit:22.9256;}
	.st1{fill-rule:evenodd;clip-rule:evenodd;fill:#EF7D00;}
</style>
<path class="st0" d="M246.4,14.7h23.5v117.4h-23.5V14.7z M509.7,30.9h3.3h19.1H565v21.6h-32.9v17.6h30.2v21.6h-30.2v41.1h-22.3
	L509.7,30.9L509.7,30.9z M684.4,52.5l-18.1,9.5c9.3,7.9,11.5,15.8,11.5,25.3l0,46.3l21.7-0.4l-0.2-35.5
	c-0.1-18.2,14.6-22.2,23.9-24.4l-5-21.6c-8.5,0.7-17.8,5.9-24.4,11.6L684.4,52.5z M106.3,50.4l-21.8,7l28.2,69.5l-18.9,37.6l19,9
	l52.7-115.6l-20.1-7.2l-20.2,54.2L106.3,50.4z M317.9,71.8c9.1,0,16.4,9.9,16.4,22.2s-7.4,22.2-16.4,22.2c-9.1,0-16.5-9.9-16.5-22.2
	C301.4,81.8,308.8,71.8,317.9,71.8z M317.9,51.4c21.7,0,39.3,19.1,39.3,42.6c0,23.5-17.6,42.6-39.3,42.6s-39.3-19.1-39.3-42.6
	C278.5,70.5,296.2,51.4,317.9,51.4z M616.3,71.8c9.1,0,16.4,9.9,16.4,22.2s-7.4,22.2-16.4,22.2s-16.4-9.9-16.4-22.2
	C599.8,81.8,607.2,71.8,616.3,71.8z M616.3,51.4c21.7,0,39.3,19.1,39.3,42.6c0,23.5-17.6,42.6-39.3,42.6
	c-21.7,0-39.3-19.1-39.3-42.6C577,70.5,594.6,51.4,616.3,51.4z M226.9,107.6l13,15.5c-11,13.5-34.8,17.8-52.4,5.7
	c-11.1-7.6-18.1-20.6-17.5-35.3c0.5-13.6,6.9-27.1,17.2-34.9c18.1-13.9,41.4-7.2,53.9,6.9l-14.1,13.4c-17-19.1-35.2-3.1-35,13.3
	c0.1,11.2,3.5,21.5,17.4,22.9C216.8,115.8,223.4,112.5,226.9,107.6z M80.5,121.5l-13.3-17.2c-5,5.9-12.8,10.3-19.6,10.3
	c-14.3,0-24.1-16.2-23.6-34.3c0.6-18,9.4-33.5,23.6-33.5c6,0,14.9,3.5,19.4,8.3l13.7-14.6c-17.3-16.8-37.2-18.3-52.4-9.7
	C13.2,39.4,2.7,58.1,1.2,80.3c-2,30.5,20.8,55.3,48.9,55.3C61.6,135.6,71.3,129.2,80.5,121.5z M744.5,31.5l22.1,0v23.8l16.8,0v20.8
	l-16.8,0.1v25.3c0,7.7,3.7,19.9,12.6,24.7l-17.6,10.5c-9.8-8.1-16.9-18.8-16.9-34.1V76.2l-16,0.1l-0.3-21l16.1-0.2V31.5z
	 M368.7,21.2C387.9,4.7,413.2-2,432.7,2.5c31.2,7.2,42.7,26.4,41.1,44.4c-1.3,14.7-11.3,28.6-26.5,34.6c18.6,7.8,31,18.9,32.3,35.9
	c1.4,18.4-6.3,41-38.1,52.6c-16.5,6-37.3,7.4-62.7,4.1l-1.6-33.2c15.2,3.1,27.5,4.3,37.1,3.8c32.7-1.5,41.9-32.9,15.5-41
	c-8.9-2.8-19.5-3.8-35.5-3.4L394,69.3c10.3-0.1,23.2-0.7,31.3-3.6c17-6,18.3-26.4-1.5-31.4c-11.2-2.8-27.9-0.3-35.9,12.8L368.7,21.2
	z"/>
<path class="st1" d="M246.4,14.7h23.5v117.4h-23.5V14.7z M509.7,30.9h3.3h19.1H565v21.6h-32.9v17.6h30.2v21.6h-30.2v41.1h-22.3
	L509.7,30.9L509.7,30.9z M684.4,52.5l-18.1,9.5c9.3,7.9,11.5,15.8,11.5,25.3l0,46.3l21.7-0.4l-0.2-35.5
	c-0.1-18.2,14.6-22.2,23.9-24.4l-5-21.6c-8.5,0.7-17.8,5.9-24.4,11.6L684.4,52.5z M106.3,50.4l-21.8,7l28.2,69.5l-18.9,37.6l19,9
	l52.7-115.6l-20.1-7.2l-20.2,54.2L106.3,50.4z M317.9,71.8c9.1,0,16.4,9.9,16.4,22.2s-7.4,22.2-16.4,22.2c-9.1,0-16.5-9.9-16.5-22.2
	C301.4,81.8,308.8,71.8,317.9,71.8z M317.9,51.4c21.7,0,39.3,19.1,39.3,42.6c0,23.5-17.6,42.6-39.3,42.6s-39.3-19.1-39.3-42.6
	C278.5,70.5,296.2,51.4,317.9,51.4z M616.3,71.8c9.1,0,16.5,9.9,16.5,22.2s-7.4,22.2-16.5,22.2c-9.1,0-16.4-9.9-16.4-22.2
	C599.8,81.8,607.2,71.8,616.3,71.8z M616.3,51.4c21.7,0,39.3,19.1,39.3,42.6c0,23.5-17.6,42.6-39.3,42.6
	c-21.7,0-39.3-19.1-39.3-42.6S594.6,51.4,616.3,51.4z M226.9,107.6l13,15.5c-11,13.5-34.8,17.8-52.4,5.7
	c-11.1-7.6-18.1-20.6-17.5-35.3c0.5-13.6,6.9-27.1,17.2-34.9c18.1-13.9,41.4-7.2,53.9,6.9l-14.1,13.4c-17-19.1-35.2-3.1-35,13.3
	c0.1,11.2,3.5,21.5,17.4,22.9C216.8,115.8,223.4,112.5,226.9,107.6z M80.5,121.5l-13.3-17.2c-5,5.9-12.8,10.3-19.6,10.3
	c-14.3,0-24.1-16.2-23.6-34.3c0.6-18,9.4-33.5,23.6-33.5c6,0,14.9,3.5,19.4,8.3l13.7-14.6c-17.3-16.8-37.2-18.3-52.4-9.8
	C13.2,39.4,2.7,58.1,1.2,80.3c-2,30.5,20.8,55.3,48.9,55.3C61.6,135.6,71.3,129.2,80.5,121.5z M744.5,31.5l22.1,0v23.8l16.8,0v20.8
	l-16.8,0.1v25.3c0,7.7,3.7,19.9,12.6,24.7l-17.6,10.5c-9.8-8.1-16.9-18.8-16.9-34.1V76.2l-16,0.1l-0.3-21l16.1-0.2V31.5z
	 M368.7,21.2C387.9,4.7,413.2-2,432.7,2.5c31.2,7.2,42.7,26.4,41.1,44.4c-1.3,14.7-11.3,28.6-26.5,34.6c18.6,7.8,31,18.9,32.3,35.9
	c1.4,18.4-6.3,41-38.1,52.6c-16.5,6-37.3,7.4-62.7,4.1l-1.6-33.2c15.2,3.1,27.5,4.3,37.1,3.8c32.7-1.5,41.9-32.9,15.5-41
	c-8.9-2.8-19.5-3.8-35.5-3.4L394,69.3c10.3-0.1,23.2-0.7,31.3-3.6c17-6,18.3-26.4-1.5-31.4c-11.2-2.8-27.9-0.3-35.9,12.8L368.7,21.2
	z"/>
<path class="st1" d="M483.3,21V9.2h4.1c1.4,0,2.4,0.1,3,0.3c0.6,0.2,1.1,0.6,1.5,1.2c0.4,0.5,0.5,1.1,0.5,1.7c0,0.9-0.3,1.6-0.9,2.3
	s-1.4,1-2.5,1.1c0.4,0.2,0.8,0.4,1,0.6c0.5,0.5,1.1,1.2,1.8,2.3l1.5,2.3h-2.3l-1-1.9c-0.8-1.5-1.5-2.4-2-2.8
	c-0.3-0.3-0.9-0.4-1.5-0.4h-1.1v5L483.3,21L483.3,21z M485.2,14.4h2.3c1.1,0,1.9-0.2,2.3-0.5c0.4-0.3,0.6-0.8,0.6-1.3
	c0-0.3-0.1-0.7-0.3-0.9c-0.2-0.3-0.5-0.5-0.8-0.6s-1-0.2-1.9-0.2h-2.2L485.2,14.4L485.2,14.4z M488.1,5.7c-1.5,0-3.1,0.4-4.5,1.2
	c-1.5,0.8-2.6,1.9-3.4,3.4c-0.8,1.5-1.2,3-1.2,4.6c0,1.6,0.4,3.1,1.2,4.6c0.8,1.5,2,2.6,3.4,3.4c1.5,0.8,3,1.2,4.6,1.2
	s3.1-0.4,4.6-1.2s2.6-2,3.4-3.4c0.8-1.5,1.2-3,1.2-4.6c0-1.6-0.4-3.1-1.2-4.6s-2-2.6-3.4-3.4C491.2,6.1,489.7,5.7,488.1,5.7z
	 M488.1,3.9c1.8,0,3.7,0.5,5.4,1.4c1.8,1,3.1,2.3,4.1,4.1s1.5,3.6,1.5,5.5c0,1.9-0.5,3.7-1.5,5.5c-1,1.8-2.3,3.1-4.1,4.1
	c-1.8,1-3.6,1.5-5.5,1.5c-1.9,0-3.7-0.5-5.5-1.5c-1.8-1-3.1-2.3-4.1-4.1c-1-1.8-1.5-3.6-1.5-5.5c0-1.9,0.5-3.8,1.5-5.5
	s2.4-3.1,4.1-4.1C484.5,4.4,486.3,3.9,488.1,3.9z"/>
</svg>
