<?xml version="1.0" encoding="UTF-8"?><svg id="Warstwa_1" xmlns="http://www.w3.org/2000/svg" viewBox="0 0 784.5 176.9"><defs><style>.cls-1{fill:#ef7d00;fill-rule:evenodd;}.cls-2{fill:none;stroke:#ffed00;stroke-linecap:round;stroke-linejoin:round;stroke-width:2.23px;}</style></defs><path class="cls-2" d="m246.38,14.72h23.52v117.39h-23.52V14.72Zm263.35,16.14h55.24v21.62h-32.89v17.63h30.15v21.62h-30.15v41.07h-22.35V30.86h0Zm174.67,21.6l-18.11,9.48c9.26,7.9,11.49,15.81,11.5,25.27v46.34s21.69-.4,21.69-.4l-.2-35.53c-.1-18.2,14.61-22.25,23.91-24.36l-4.96-21.63c-8.45.74-17.78,5.94-24.4,11.64l-9.43-10.81Zm-578.1-2.1l-21.79,7.04,28.21,69.52-18.94,37.59,19.02,8.96,52.71-115.64-20.15-7.19-20.23,54.24-18.83-54.52Zm211.58,21.48c9.08,0,16.44,9.92,16.44,22.16s-7.36,22.16-16.44,22.16-16.45-9.92-16.45-22.16,7.37-22.16,16.45-22.16Zm0-20.45c21.72,0,39.34,19.08,39.34,42.61s-17.62,42.61-39.34,42.61-39.34-19.08-39.34-42.61c0-23.52,17.62-42.61,39.34-42.61Zm298.42,20.45c9.08,0,16.44,9.92,16.44,22.16s-7.36,22.16-16.44,22.16-16.44-9.92-16.44-22.16c-.01-12.23,7.35-22.16,16.44-22.16Zm0-20.45c21.72,0,39.34,19.08,39.34,42.61s-17.62,42.61-39.34,42.61-39.34-19.08-39.34-42.61,17.61-42.61,39.34-42.61Zm-389.37,56.19l13.04,15.47c-11.04,13.52-34.79,17.85-52.38,5.74-11.1-7.64-18.09-20.58-17.51-35.26.53-13.57,6.94-27.1,17.22-34.88,18.09-13.94,41.35-7.18,53.94,6.9l-14.14,13.37c-16.98-19.07-35.17-3.12-34.98,13.31.14,11.22,3.48,21.54,17.39,22.9,7.31.71,13.94-2.64,17.42-7.55Zm-146.39,13.9l-13.26-17.21c-5.01,5.93-12.84,10.33-19.57,10.33-14.28,0-24.15-16.24-23.6-34.26.55-18.03,9.35-33.54,23.63-33.54,5.98,0,14.94,3.52,19.41,8.31l13.7-14.56c-17.33-16.81-37.22-18.33-52.43-9.74C13.22,39.4,2.7,58.11,1.24,80.34c-2.01,30.5,20.8,55.3,48.87,55.3,11.48-.01,21.17-6.4,30.43-14.16ZM744.46,31.52l22.12.04v23.85h16.8s0,20.77,0,20.77l-16.8.14v25.26c0,7.73,3.69,19.92,12.59,24.72l-17.63,10.52c-9.76-8.14-16.88-18.81-16.88-34.14v-26.49l-16.01.07-.33-20.99,16.14-.17v-23.58Zm-375.77-10.29c19.25-16.54,44.49-23.26,64.06-18.74,31.15,7.2,42.7,26.37,41.13,44.38-1.28,14.67-11.28,28.57-26.51,34.59,18.59,7.82,31.01,18.9,32.3,35.9,1.4,18.41-6.32,40.99-38.13,52.55-16.5,6-37.34,7.45-62.73,4.12l-1.61-33.16c15.21,3.08,27.45,4.29,37.12,3.83,32.71-1.55,41.87-32.86,15.51-41.05-8.9-2.77-19.52-3.82-35.46-3.42l-.39-30.93c10.3-.06,23.16-.68,31.34-3.58,16.96-6.01,18.27-26.42-1.52-31.4-11.21-2.82-27.91-.29-35.91,12.81l-19.2-25.9Z"/><path class="cls-1" d="m246.38,14.72h23.52v117.39h-23.52V14.72Zm263.35,16.14h55.24v21.62h-32.89v17.63h30.15v21.62h-30.15v41.07h-22.35V30.86h0Zm174.67,21.59l-18.11,9.48c9.26,7.9,11.49,15.81,11.5,25.27v46.34s21.69-.4,21.69-.4l-.2-35.53c-.1-18.2,14.61-22.25,23.91-24.36l-4.96-21.63c-8.45.74-17.78,5.94-24.4,11.64l-9.43-10.81Zm-578.1-2.09l-21.79,7.04,28.21,69.52-18.94,37.59,19.02,8.96,52.71-115.64-20.15-7.19-20.23,54.24-18.83-54.52Zm211.58,21.48c9.08,0,16.44,9.92,16.44,22.16s-7.36,22.16-16.44,22.16-16.45-9.92-16.45-22.16,7.37-22.16,16.45-22.16Zm0-20.45c21.72,0,39.34,19.08,39.34,42.61s-17.62,42.61-39.34,42.61-39.34-19.08-39.34-42.61c0-23.53,17.62-42.61,39.34-42.61Zm298.42,20.45c9.08,0,16.45,9.92,16.45,22.16s-7.36,22.16-16.45,22.16-16.44-9.92-16.44-22.16c-.01-12.24,7.36-22.16,16.44-22.16Zm0-20.45c21.72,0,39.34,19.08,39.34,42.61s-17.62,42.61-39.34,42.61-39.34-19.08-39.34-42.61,17.61-42.61,39.34-42.61Zm-389.37,56.19l13.04,15.47c-11.04,13.52-34.79,17.85-52.38,5.73-11.1-7.64-18.09-20.58-17.51-35.26.53-13.57,6.94-27.1,17.22-34.88,18.09-13.94,41.35-7.18,53.94,6.9l-14.14,13.37c-16.98-19.07-35.17-3.12-34.98,13.31.14,11.22,3.48,21.54,17.39,22.9,7.31.72,13.94-2.63,17.42-7.54Zm-146.39,13.9l-13.26-17.21c-5.01,5.93-12.84,10.33-19.57,10.33-14.28,0-24.15-16.24-23.6-34.26.55-18.03,9.35-33.54,23.63-33.54,5.98,0,14.94,3.52,19.41,8.31l13.7-14.56c-17.33-16.81-37.22-18.34-52.43-9.75C13.22,39.39,2.7,58.1,1.24,80.33c-2.01,30.5,20.8,55.3,48.87,55.3,11.48,0,21.17-6.39,30.43-14.15ZM744.46,31.52l22.12.04v23.85h16.8s0,20.77,0,20.77l-16.8.14v25.26c0,7.73,3.69,19.92,12.59,24.72l-17.63,10.52c-9.76-8.14-16.88-18.81-16.88-34.14v-26.49l-16.01.07-.33-20.99,16.14-.17v-23.58Zm-375.77-10.3c19.25-16.54,44.5-23.26,64.06-18.74,31.15,7.2,42.7,26.37,41.13,44.38-1.28,14.67-11.28,28.57-26.51,34.59,18.59,7.82,31.01,18.9,32.3,35.9,1.4,18.41-6.32,40.99-38.13,52.55-16.5,6-37.34,7.45-62.73,4.12l-1.61-33.16c15.21,3.08,27.45,4.29,37.12,3.83,32.71-1.55,41.87-32.86,15.51-41.05-8.9-2.77-19.52-3.82-35.46-3.42l-.39-30.93c10.3-.06,23.16-.68,31.34-3.57,16.96-6.01,18.27-26.42-1.52-31.4-11.21-2.82-27.91-.29-35.91,12.81l-19.2-25.91Z"/><path class="cls-1" d="m483.29,21.03v-11.86h4.07c1.4,0,2.4.1,3.03.32.62.22,1.12.6,1.49,1.15.37.55.55,1.13.55,1.74,0,.87-.31,1.62-.93,2.26s-1.44,1-2.46,1.08c.42.17.76.38,1.01.63.48.47,1.06,1.25,1.75,2.35l1.45,2.32h-2.34l-1.05-1.87c-.83-1.47-1.49-2.39-2-2.76-.35-.27-.86-.41-1.54-.41h-1.12v5.04h-1.91Zm1.92-6.67h2.32c1.11,0,1.86-.17,2.27-.5.4-.33.61-.77.61-1.32,0-.35-.1-.66-.29-.94-.19-.27-.46-.48-.81-.62s-.99-.2-1.92-.2h-2.17v3.58h-.01Zm2.92-8.63c-1.55,0-3.06.4-4.52,1.19-1.47.79-2.61,1.93-3.44,3.4-.83,1.48-1.24,3.01-1.24,4.61s.41,3.11,1.22,4.56c.81,1.46,1.95,2.59,3.41,3.41,1.46.81,2.98,1.22,4.57,1.22s3.11-.41,4.57-1.22,2.59-1.95,3.4-3.41c.81-1.46,1.21-2.98,1.21-4.56s-.41-3.14-1.23-4.61-1.97-2.61-3.44-3.4c-1.47-.79-2.97-1.19-4.51-1.19Zm0-1.82c1.85,0,3.65.47,5.42,1.42,1.76.95,3.14,2.31,4.12,4.08s1.48,3.61,1.48,5.53-.48,3.72-1.46,5.48c-.97,1.75-2.33,3.12-4.07,4.08-1.75.97-3.58,1.46-5.48,1.46s-3.74-.48-5.48-1.46c-1.75-.97-3.11-2.33-4.08-4.08-.98-1.75-1.46-3.58-1.46-5.48s.49-3.76,1.48-5.53,2.36-3.13,4.13-4.08c1.74-.95,3.55-1.42,5.4-1.42Z"/></svg>